<svg width="234" height="156" viewBox="0 0 234 156" fill="none" xmlns="http://www.w3.org/2000/svg">
<path d="M188.792 79.3812C188.013 78.8624 187.495 78.0841 186.716 77.5653C185.938 76.7871 185.419 77.3059 184.122 78.3436C182.825 79.3812 180.49 81.4566 177.896 83.013C175.043 79.3812 173.486 73.9335 180.49 67.7075L181.269 66.9293L180.49 66.151C178.934 64.5945 175.043 63.2974 171.151 65.1134C171.411 64.8539 171.67 64.5945 171.93 64.3351C172.448 63.8163 172.708 63.5569 172.967 63.038L174.524 61.2221L172.189 61.4815C166.482 62.0004 162.85 65.1134 160.515 68.2263C150.917 44.6195 143.913 27.4981 140.54 19.1968L195.796 30.8705L182.566 19.1968L220.7 11.4143L175.561 6.22598L179.453 0.778247L132.239 3.3724C129.126 2.33474 122.381 0.259416 122.381 0H122.122H121.862C121.084 0.259416 116.674 1.55649 113.302 2.59416L64.7908 0L67.9038 5.44773L23.5437 10.636L61.4184 18.6779L47.41 30.6111L102.925 18.6779L81.6529 62.0004C78.5399 61.741 75.4269 61.741 72.5733 62.5192C61.4184 64.5945 51.5606 72.377 44.5564 84.5695C42.4811 77.5653 37.8116 73.9335 31.3262 74.4523C25.1002 74.9712 18.3554 79.6406 13.1671 86.3855C6.9411 93.6491 3.82811 102.729 4.08753 111.549V114.402L5.90344 112.068C9.01643 108.436 14.2047 103.247 16.5395 102.469C14.983 104.804 13.1671 107.139 11.0918 109.733C9.79468 111.289 8.75701 112.846 7.45994 114.143C2.53104 121.407 0.455709 130.486 2.0122 137.49C3.04987 142.16 5.90344 145.792 9.79468 148.126H10.0541C21.9872 151.499 31.5856 146.57 37.0333 142.419V144.495C37.0333 150.461 41.9622 155.39 47.9288 155.39L184.382 154.612C186.716 154.612 188.792 153.834 190.608 152.536C192.683 152.796 194.758 153.315 197.093 153.574C202.541 154.612 206.951 153.834 210.064 151.239C214.474 147.867 214.733 142.419 214.733 142.419V90.7955L213.436 91.0549C198.39 87.9419 195.018 84.829 188.792 79.3812Z" fill="#4278D3"/>
<path fill-rule="evenodd" clip-rule="evenodd" d="M56.4896 134.377H173.486C178.674 134.377 183.084 137.231 183.084 140.863V144.754C183.084 148.386 178.674 151.239 173.486 151.239H56.4896C51.3012 151.239 46.8912 148.386 46.8912 144.754V140.863C46.8912 137.231 51.0418 134.377 56.4896 134.377Z" fill="black"/>
<path fill-rule="evenodd" clip-rule="evenodd" d="M121.862 4.92889L130.682 14.5273L134.314 16.6026L191.645 28.7951L179.971 18.1591L213.436 11.4143L173.746 7.00422L177.377 2.07532L121.862 4.92889Z" fill="black"/>
<path fill-rule="evenodd" clip-rule="evenodd" d="M133.536 8.30129L135.611 12.9708L178.156 21.7909L172.189 16.0838L190.608 12.4519L165.444 9.59837L168.298 5.96655L133.536 8.30129Z" fill="white"/>
<path d="M135.611 14.2679C136.649 17.1214 144.95 38.6529 164.407 87.6825C151.436 85.0883 137.168 83.7913 122.641 83.7913C105 83.7913 88.1383 85.8666 72.8328 89.4984L108.113 13.4896L108.373 13.2302C108.632 13.2302 108.892 12.9708 109.151 12.9708L110.189 12.4519L110.448 11.9331C110.967 10.636 111.226 9.33895 111.486 8.56071C111.486 8.30129 111.486 8.04187 111.486 7.78246C111.486 7.52304 111.226 7.52304 111.226 7.26363C111.486 7.00421 112.005 7.00421 112.523 6.7448C113.82 6.22596 115.118 5.70713 116.674 5.1883C118.749 4.41005 120.825 3.63181 121.862 3.11298L127.051 4.92889L131.201 6.48538L132.239 7.00421C131.98 7.52304 131.98 8.30129 132.239 9.59837C132.758 10.8954 133.536 12.1925 133.795 12.9708L134.055 13.2302L135.093 13.749L135.611 14.2679Z" fill="white"/>
<path fill-rule="evenodd" clip-rule="evenodd" d="M120.825 12.452L135.352 15.565L165.444 88.2014C152.214 85.6072 137.946 99.6157 122.9 99.6157C121.084 99.6157 117.193 84.0507 115.377 84.0507L120.825 12.452Z" fill="#4278D3"/>
<path fill-rule="evenodd" clip-rule="evenodd" d="M121.084 4.15063L112.783 14.0084L109.151 16.0838L51.3012 28.7951L63.4938 18.1591L30.0291 10.8954L69.7197 6.22596L66.6068 1.29706L121.084 4.15063Z" fill="black"/>
<path d="M132.758 8.3013C133.277 9.59838 134.574 11.6737 134.833 12.7114L135.611 12.9708L136.649 13.749C136.649 13.749 150.658 47.9919 172.448 100.653C168.817 99.875 164.666 105.063 161.034 104.545L133.536 17.6403C128.348 12.7114 115.896 11.1549 109.67 17.6403L82.1717 87.6825C77.5022 88.4608 72.8327 89.4984 68.4227 90.7955L107.076 12.9708C107.335 12.7114 107.594 12.452 107.854 12.452C108.113 12.1925 108.373 12.1925 108.632 11.9331L109.151 11.6737C109.67 10.3766 109.929 9.33896 110.189 8.3013C110.448 7.78247 109.929 5.18831 110.189 4.66948C110.448 4.41006 122.122 1.03766 122.122 1.03766C122.122 1.03766 133.536 4.66948 133.536 4.92889C134.055 5.44773 131.98 5.96656 132.758 8.3013Z" fill="black"/>
<path fill-rule="evenodd" clip-rule="evenodd" d="M110.189 7.78248L107.854 12.452L65.3097 21.5315L71.2762 15.565L52.8577 11.9331L78.0211 9.07956L75.1675 5.70715L110.189 7.78248Z" fill="white"/>
<path d="M97.2178 63.038L104.741 62.0004L101.628 74.4523C98.7743 74.7117 95.9207 75.2306 93.0671 75.49L97.2178 63.038ZM105.779 36.5776L110.707 35.54L108.373 45.3978L102.406 46.4354L105.779 36.5776ZM110.448 19.975L113.561 19.1968L112.264 24.1257L108.373 24.9039L110.448 19.975Z" fill="black"/>
<path fill-rule="evenodd" clip-rule="evenodd" d="M128.348 13.2302C129.385 13.4896 134.055 16.862 134.314 17.1215L162.85 106.101C160.256 105.842 147.026 96.7621 144.432 96.5027L128.348 13.2302Z" fill="black"/>
<path d="M128.867 8.56071L130.164 12.1925C129.645 11.9331 128.348 11.1549 127.569 10.8955L126.791 7.00422C128.607 7.26364 128.867 8.56071 128.867 8.56071ZM116.674 7.00422L115.636 10.8955C115.377 11.1549 113.042 12.1925 112.783 12.4519L114.339 8.3013C114.599 8.3013 115.118 7.52305 116.674 7.00422ZM118.49 10.636L119.009 6.48539C121.862 5.44773 124.197 5.96656 124.975 6.7448L125.235 10.8955C122.381 10.1172 120.046 10.3766 118.49 10.636Z" fill="white"/>
<path d="M111.226 20.7533L114.339 19.975L113.042 24.9039L109.41 25.9416L111.226 20.7533ZM98.7744 64.3351L106.297 63.2975L102.925 75.7494C100.85 76.0088 98.5149 76.2682 96.4396 76.5277C95.9208 76.5277 95.1425 76.2682 94.6237 76.2682L98.7744 64.3351ZM107.335 37.8747L112.264 36.8371L109.929 46.6949L103.963 47.7325L107.335 37.8747Z" fill="white"/>
<path d="M213.436 92.0926C196.315 88.7202 193.721 85.0883 185.938 78.3435C185.679 78.0841 182.047 82.2348 177.637 84.3101C174.005 80.1594 172.189 73.9335 179.712 66.6698C178.156 65.1133 173.227 63.5568 168.298 67.7075C168.038 65.6322 170.892 63.5568 171.93 62.2598C157.662 63.5568 153.252 82.7536 159.737 94.4273C148.582 86.9043 134.833 77.0465 105.519 83.2724C101.628 67.1887 86.3224 60.7033 72.5734 63.2974C60.1214 65.6322 50.2636 74.9711 43.7782 87.1637C39.1087 60.7033 4.60644 83.013 5.12527 111.549C6.94118 109.473 14.7237 100.653 17.5772 101.432C18.0961 101.691 18.0961 101.95 17.8366 102.21C15.5019 106.36 11.3512 110.771 8.49768 114.662C1.23403 125.298 -0.581876 140.863 10.573 147.089C24.5815 150.98 35.2175 142.938 38.3305 140.344V144.495C38.3305 149.942 42.7406 154.352 47.9289 154.352L184.382 153.574C186.716 153.574 188.792 152.796 190.348 151.499C192.683 151.758 194.758 152.277 197.352 152.536C212.917 155.39 213.696 142.419 213.696 142.419L213.436 92.0926Z" fill="black"/>
<path fill-rule="evenodd" clip-rule="evenodd" d="M13.1672 98.578C14.4643 95.2056 16.5396 92.0926 18.6149 89.4984C22.2467 85.3478 32.6234 77.3059 37.2928 86.3855C42.4812 95.9838 31.8451 106.879 26.138 113.624C19.6526 121.147 19.3932 129.967 30.548 125.298C28.2133 125.298 25.1003 123.482 25.1003 120.628C43.7782 131.005 42.4812 77.5653 73.3516 71.0799C82.1718 69.264 89.6948 71.5988 96.1802 79.3812C93.3267 78.3436 90.2137 77.8247 87.1007 78.603C92.0296 80.9377 93.5861 86.126 94.1049 92.0926C75.427 71.8582 40.4058 106.879 51.0419 128.151C52.5984 129.708 54.9331 128.93 59.3432 126.595C56.749 130.746 47.9289 142.16 43.2594 134.637C41.9623 132.302 41.4435 129.189 41.7029 126.595C36.774 136.453 16.0207 148.386 10.573 136.712C3.82821 122.963 20.6902 111.549 26.3974 101.95C35.9958 85.6072 19.1337 92.8708 13.1672 98.578Z" fill="#4278D3"/>
<path fill-rule="evenodd" clip-rule="evenodd" d="M83.9877 74.9711C81.653 75.7494 78.2806 76.5276 75.9459 78.603C78.7994 79.1218 82.6907 79.6406 85.0254 81.9754C72.5735 79.9 62.7157 83.5319 53.6361 93.3897C58.3056 82.2348 68.6822 72.8958 83.9877 74.9711Z" fill="white"/>
<path fill-rule="evenodd" clip-rule="evenodd" d="M33.4016 127.633C21.2091 144.495 6.68183 131.264 19.3932 118.034C14.4643 127.373 15.7614 130.746 21.9874 132.561C21.4685 131.524 20.6903 130.486 20.4309 129.448C24.5815 133.08 29.251 129.967 33.4016 127.633Z" fill="white"/>
<path fill-rule="evenodd" clip-rule="evenodd" d="M165.185 69.0046C163.109 74.1929 163.628 77.5653 164.666 81.1971C164.666 76.7871 167.26 70.8205 174.005 67.9669C168.557 75.49 168.557 87.6825 179.712 92.0926C175.821 94.1679 169.854 91.5738 167.779 90.5361C168.557 93.9085 173.227 97.7998 186.197 97.0215C186.457 97.0215 174.783 103.507 164.147 92.8708C159.996 88.7202 157.921 75.7494 165.185 69.0046Z" fill="#4278D3"/>
<path fill-rule="evenodd" clip-rule="evenodd" d="M60.6402 99.3563C65.0503 99.8751 68.1633 100.135 72.5733 100.394C74.3892 106.101 77.5022 111.808 79.5775 117.515C81.3935 112.068 83.2094 106.62 85.0253 101.432C89.6948 101.691 94.1048 101.95 98.7743 101.95V130.227C94.8831 130.227 91.2513 130.486 87.36 130.746C87.36 128.67 87.1006 127.373 87.1006 125.038L88.9165 124.001V113.105C88.6571 114.402 88.1383 115.44 87.6194 116.737C86.5818 120.369 85.0253 124.001 83.9876 127.633C81.134 127.633 78.0211 127.892 74.9081 128.151C73.611 122.963 71.7951 118.034 70.2386 113.105V131.783C67.1256 132.043 63.7532 132.302 60.6402 132.561C60.6402 121.407 60.6402 110.252 60.6402 99.3563ZM103.963 129.967C103.963 129.708 103.963 126.076 103.963 125.817L106.557 119.85C109.151 113.884 112.005 107.917 114.599 101.95C118.49 101.95 122.381 101.95 126.532 101.691C127.569 104.026 128.607 106.36 129.645 108.695C132.758 115.959 136.13 123.223 139.243 130.486C135.611 130.227 131.72 130.227 128.088 129.967C127.31 127.892 126.272 126.076 125.754 124.001C122.122 124.001 118.23 124.001 114.599 124.001C114.599 124.26 114.339 124.779 114.339 125.038L116.415 125.817V129.708C112.264 129.708 108.113 129.708 103.963 129.967ZM120.565 109.733C119.528 112.586 117.971 115.699 116.933 118.553C119.268 118.553 121.343 118.553 123.678 118.553C122.381 115.699 121.603 112.846 120.565 109.733Z" fill="white"/>
<path fill-rule="evenodd" clip-rule="evenodd" d="M119.268 103.507C121.862 97.7998 134.833 96.2433 144.431 99.6157L147.544 101.172C130.423 98.0592 124.197 103.247 123.159 104.026C121.084 104.804 118.49 105.063 119.268 103.507ZM99.5526 98.8374C102.666 89.4985 130.682 76.2683 163.888 102.21C129.904 87.6826 108.373 98.3186 101.109 108.695C102.406 98.0592 110.189 95.7244 114.339 93.9085C108.632 93.9085 103.963 96.2433 99.5526 98.8374Z" fill="#4278D3"/>
<path d="M166.482 139.566H170.632L176.08 143.976V139.566H180.231V147.608H176.08L170.632 143.198V147.608H166.482V139.566ZM53.8954 139.566H62.1967C63.4937 139.566 64.7908 139.825 65.3097 140.085C66.0879 140.344 66.3473 140.863 66.3473 141.382C66.3473 141.9 66.0879 142.16 65.5691 142.679C65.3097 142.938 64.7908 143.198 64.0126 143.198C65.0502 143.457 65.8285 143.457 66.3473 143.976C66.8661 144.235 67.1256 144.754 67.1256 145.273C67.1256 145.792 66.8661 146.051 66.6067 146.31C66.3473 146.57 65.8285 146.829 65.0502 147.089C64.7908 147.089 64.0126 147.348 63.2343 147.348C62.1967 147.348 61.6778 147.348 61.159 147.348H53.3765V139.566H53.8954ZM58.5648 142.679H60.6402C61.4184 142.679 61.9372 142.679 62.1967 142.419C62.4561 142.16 62.7155 142.16 62.7155 141.9C62.7155 141.641 62.4561 141.382 62.1967 141.382C61.9372 141.122 61.4184 141.122 60.6402 141.122H58.5648V142.679ZM58.5648 145.792H60.8996C61.6778 145.792 62.1967 145.792 62.4561 145.532C62.7155 145.273 62.9749 145.273 62.9749 145.013C62.9749 144.754 62.7155 144.495 62.4561 144.495C62.1967 144.235 61.6778 144.235 60.8996 144.235H58.5648V145.792ZM75.9457 143.457C75.9457 142.16 76.7239 141.122 78.021 140.344C79.3181 139.566 81.134 139.306 83.4688 139.306C85.8035 139.306 87.6194 139.566 88.9165 140.344C90.2136 141.122 90.9918 142.16 90.9918 143.457C90.9918 144.495 90.7324 145.273 90.2136 145.792C89.6947 146.31 88.9165 146.829 87.6194 147.089C86.5817 147.348 85.2847 147.608 83.4688 147.608C81.9123 147.608 80.3558 147.348 79.3181 147.089C78.2804 146.829 77.5022 146.31 76.7239 145.792C76.2051 145.273 75.9457 144.495 75.9457 143.457ZM80.3558 143.457C80.3558 144.235 80.6152 144.754 81.134 145.273C81.6529 145.532 82.4311 145.792 83.4688 145.792C84.5064 145.792 85.2847 145.532 85.8035 145.273C86.3223 145.013 86.5818 144.235 86.5818 143.457C86.5818 142.679 86.3223 142.16 85.8035 141.9C85.2847 141.641 84.5064 141.382 83.4688 141.382C82.6905 141.382 81.9123 141.641 81.3934 141.9C80.6152 142.16 80.3558 142.679 80.3558 143.457ZM99.2931 144.754L103.444 144.495C103.444 144.754 103.703 145.273 103.963 145.273C104.481 145.532 105 145.792 106.038 145.792C106.557 145.792 107.076 145.792 107.594 145.532C107.854 145.273 108.113 145.273 108.113 145.013C108.113 144.754 107.854 144.495 107.594 144.495C107.335 144.235 106.557 144.235 105.26 143.976C103.184 143.716 101.887 143.457 101.109 142.938C100.331 142.419 99.812 141.9 99.812 141.382C99.812 140.863 100.071 140.603 100.331 140.344C100.85 140.085 101.368 139.566 102.406 139.566C103.184 139.306 104.481 139.306 106.038 139.306C107.854 139.306 109.41 139.566 110.189 139.825C111.226 140.085 111.745 140.863 112.005 141.641L107.854 141.9C107.854 141.641 107.594 141.382 107.076 141.122C106.816 140.863 106.297 140.863 105.519 140.863C105 140.863 104.481 140.863 104.222 141.122C103.963 141.122 103.703 141.382 103.703 141.641C103.703 141.9 103.703 141.9 103.963 141.9C104.222 141.9 104.741 142.16 105.519 142.16C107.594 142.419 108.892 142.679 109.67 142.938C110.448 143.197 111.226 143.457 111.486 143.716C111.745 143.976 112.005 144.495 112.005 145.013C112.005 145.532 111.745 146.051 111.226 146.31C110.707 146.829 109.929 147.089 109.151 147.348C108.113 147.608 107.076 147.608 105.779 147.608C103.184 147.608 101.628 147.348 100.59 146.829C100.071 146.31 99.5525 145.792 99.2931 144.754ZM120.565 139.566H134.055V141.641H129.385V147.608H124.975V141.641H120.306V139.566H120.565ZM142.356 143.457C142.356 142.16 143.134 141.122 144.431 140.344C145.729 139.566 147.544 139.306 149.879 139.306C152.214 139.306 154.03 139.566 155.327 140.344C156.624 141.122 157.402 142.16 157.402 143.457C157.402 144.495 157.143 145.273 156.624 145.792C156.105 146.31 155.327 146.829 154.03 147.089C152.992 147.348 151.695 147.608 149.879 147.608C148.323 147.608 146.766 147.348 145.729 147.089C144.691 146.829 143.913 146.31 143.134 145.792C142.616 145.273 142.356 144.495 142.356 143.457ZM146.766 143.457C146.766 144.235 147.026 144.754 147.544 145.273C148.063 145.532 148.842 145.792 149.879 145.792C150.917 145.792 151.695 145.532 152.214 145.273C152.733 145.013 152.992 144.235 152.992 143.457C152.992 142.679 152.733 142.16 152.214 141.9C151.695 141.641 150.917 141.382 149.879 141.382C149.101 141.382 148.323 141.641 147.804 141.9C147.026 142.16 146.766 142.679 146.766 143.457Z" fill="white"/>
<path fill-rule="evenodd" clip-rule="evenodd" d="M175.561 132.821V123.482C178.934 123.741 180.231 123.741 183.603 123.741L185.419 126.076C186.457 126.076 187.754 126.335 188.792 126.335C192.683 126.595 193.202 125.817 193.202 122.963C193.202 117.515 175.821 120.109 175.821 108.436C175.821 98.3186 181.528 96.2432 192.942 94.4273C196.055 93.9085 199.168 93.3897 202.281 93.1302V104.285C199.428 104.545 197.612 104.545 194.758 104.804L193.461 103.247C190.089 103.507 186.197 103.247 186.197 106.879C186.197 112.586 203.578 107.398 203.578 122.704C203.578 127.633 203.059 134.896 195.277 135.674C192.423 135.934 189.051 135.156 185.938 134.896C182.566 134.118 178.934 133.34 175.561 132.821ZM144.691 130.746V122.963C148.063 122.963 149.36 122.963 152.733 122.963L154.549 124.779C155.846 124.779 156.883 125.038 158.181 125.038C161.553 125.298 162.591 125.038 162.591 122.185C162.591 118.034 145.21 120.109 145.21 110.511C145.21 101.432 152.992 100.653 162.591 99.6156C165.704 99.3562 168.817 99.0968 171.93 98.8374V107.398C168.817 107.658 167.26 107.658 164.147 107.917L162.591 106.879C159.996 107.139 155.327 106.62 155.327 109.473C155.327 114.143 172.967 110.252 172.967 121.925C172.967 132.821 166.222 132.821 155.068 131.783C151.695 131.524 148.063 131.005 144.691 130.746Z" fill="white"/>
<path d="M219.662 135.674H224.85V136.453H222.775V142.16H221.997V136.453H219.662V135.674Z" fill="black"/>
<path d="M231.076 142.16V138.269C231.076 138.009 231.076 137.231 231.076 136.712L229.26 142.16H228.482L226.666 136.712C226.666 137.231 226.666 138.009 226.666 138.269V142.16H225.888V135.674H227.185L229.001 141.122L230.817 135.674H232.114V142.16H231.076Z" fill="black"/>
</svg>
